<svg id="Capa_1" enable-background="new 0 0 512 512" height="512" viewBox="0 0 512 512" width="512" xmlns="http://www.w3.org/2000/svg"><path d="m445.479 270h66.521v-90h-66.521c-21.128-103.854-112.765-180-220.479-180-124.35 0-225 100.632-225 225 0 72.322 33.825 137.025 88.557 178.937l-71.459 108.063h162.902v-30h-107.098l40.633-61.447c33.58 19.211 71.734 29.447 111.465 29.447 39.356 0 77.71-10.298 111.42-29.515l40.678 61.515h-107.098v30h162.902l-71.469-108.078c43.443-33.147 73.252-80.864 84.046-133.922zm36.521-30h-92v-30h92zm-242-195c0 8.271-6.729 15-15 15s-15-6.729-15-15 6.729-15 15-15 15 6.729 15 15zm-131.672 42.114c5.861 5.862 5.863 15.35 0 21.213-5.862 5.861-15.35 5.863-21.213 0-5.462-5.462-6.692-14.503 1.322-22.376 5.901-4.674 14.454-4.273 19.891 1.163zm-78.328 137.886c0-37.899 10.879-73.299 29.662-103.264 1.768 2.79 3.847 5.412 6.239 7.804 17.586 17.586 46.051 17.588 63.64 0 17.586-17.585 17.589-46.051 0-63.64-2.393-2.393-5.014-4.471-7.804-6.239 18.045-11.311 38.056-19.761 59.404-24.687-.738 3.227-1.141 6.58-1.141 10.026 0 24.813 20.187 45 45 45s45-20.187 45-45c0-3.419-.396-6.746-1.122-9.949 71.181 16.618 128.769 72.692 145.895 144.949h-54.773v30h-92.58c-6.192-17.459-22.865-30-42.42-30-24.813 0-45 20.187-45 45 0 10.124 3.363 19.476 9.027 27.003l-83.82 126.756c-45.742-35.718-75.207-91.36-75.207-153.759zm180 0c0-8.271 6.729-15 15-15s15 6.729 15 15-6.729 15-15 15-15-6.729-15-15zm0 180c0-8.271 6.729-15 15-15s15 6.729 15 15-6.729 15-15 15-15-6.729-15-15zm58.878 9.949c.726-3.203 1.122-6.53 1.122-9.949 0-24.813-20.187-45-45-45s-45 20.187-45 45c0 3.446.402 6.799 1.14 10.025-18.064-4.168-35.169-10.863-50.939-19.674l83.795-126.718c3.522.89 7.208 1.367 11.004 1.367s7.482-.477 11.005-1.367l83.702 126.577c-15.793 8.838-32.876 15.548-50.829 19.739zm75.819-36.337-83.724-126.61c2.722-3.617 4.906-7.659 6.446-12.003h92.581v30h54.773c-10.412 43.934-35.786 81.877-70.076 108.613z"/><path d="m105 180c-24.813 0-45 20.187-45 45s20.187 45 45 45 45-20.187 45-45-20.187-45-45-45zm0 60c-8.271 0-15-6.729-15-15s6.729-15 15-15 15 6.729 15 15-6.729 15-15 15z"/><path d="m315 180c24.813 0 45-20.187 45-45s-20.187-45-45-45-45 20.187-45 45 20.187 45 45 45zm0-60c8.271 0 15 6.729 15 15s-6.729 15-15 15-15-6.729-15-15 6.729-15 15-15z"/></svg>